# xmcd
#
# Track frame offsets: 
#        150
#        11077
#        23377
#        35885
#        50635
#        63382
#        75587
#        88725
#        102497
#        116245
#        128007
#        144237
#        157350
#        170980
#        184305
#        196537
#        209602
#        221585
#        233325
#        244032
#        257210
#
# Disc length: 3622 seconds
#
# Revision: 4
# Processed by: cddbd v1.5.2PL0 Copyright (c) Steve Scherf et al.
# Submitted via: ExactAudioCopy v0.99pb4
#
DISCID=310e2415
DTITLE=Jerry Butler - Iceman - The Mercury Years - Disc 1 of 2
DYEAR=1900
DGENRE=
TTITLE0=Love (Oh, How Sweet It Is)
TTITLE1=Loneliness
TTITLE2=Alfie
TTITLE3=The Right Track
TTITLE4=You Make Me Feel Like Someone
TTITLE5=I Dig You Baby
TTITLE6=You Walked Into My Life
TTITLE7=(Nobody Ever Loved Anybody) The Way I Love You (undubbed)
TTITLE8=You Don't Know What You Got Until You Lose It
TTITLE9=Mr. Dream Merchant
TTITLE10=I've Been Loving You Too Long
TTITLE11=Lost
TTITLE12=Beside You
TTITLE13=Never Give You Up
TTITLE14=Hey, Western Union Man
TTITLE15=Can't Forget About You, Baby
TTITLE16=Are You Happy
TTITLE17=Only The Strong Survive
TTITLE18=Moody Woman
TTITLE19=Go Away - Find Yourself
TTITLE20=Only The Strong Survive (Stronger Version)
EXTD=
EXTT0=
EXTT1=
EXTT2=
EXTT3=
EXTT4=
EXTT5=
EXTT6=
EXTT7=
EXTT8=
EXTT9=
EXTT10=
EXTT11=
EXTT12=
EXTT13=
EXTT14=
EXTT15=
EXTT16=
EXTT17=
EXTT18=
EXTT19=
EXTT20=
PLAYORDER=
